<?xml version="1.0" encoding="utf-8"?>
<!-- Generator: Adobe Illustrator 15.1.0, SVG Export Plug-In . SVG Version: 6.00 Build 0)  -->
<!DOCTYPE svg PUBLIC "-//W3C//DTD SVG 1.1//EN" "http://www.w3.org/Graphics/SVG/1.1/DTD/svg11.dtd">
<svg version="1.1" id="Layer_1" xmlns="http://www.w3.org/2000/svg" xmlns:xlink="http://www.w3.org/1999/xlink" x="0px" y="0px"
	 width="640px" height="290px" viewBox="0 0 640 290" enable-background="new 0 0 640 290" xml:space="preserve">
<g>
	<g>
		<path opacity="0.9" fill="#FFFFFF" enable-background="new    " d="M195.708,279.461c7.515-1.334,13.261-3.156,17.247-5.482
			c3.987-2.322,5.97-7.133,5.97-14.432v-76.975c0-6.629-2.268-10.723-6.811-12.28c-4.53-1.539-9.787-2.324-15.751-2.324v-3.978
			l48.435-7.292v18.903c2.661-1.764,5.698-4.086,9.129-6.961c3.417-2.877,7.08-5.691,10.955-8.464
			c3.859-2.764,7.793-5.14,11.771-7.13c3.978-1.992,7.856-2.99,11.614-2.99c8.625,0,15.099,2.379,19.416,7.135
			c4.317,4.76,6.675,11.338,7.133,19.738l-26.549,13.934c0.448-1.535,0.887-3.143,1.326-4.805s0.658-3.82,0.658-6.473
			c0-3.09-1.097-6.02-3.309-8.789c-2.213-2.77-5.195-4.148-8.953-4.148c-3.103,0-6.193,0.781-9.302,2.316
			c-3.091,1.555-6.083,3.489-8.943,5.816c-2.88,2.32-5.6,4.805-8.141,7.457c-2.543,2.656-4.808,4.975-6.804,6.96v70.348
			c0,7.3,2.104,12.108,6.311,14.431c4.208,2.328,10.498,4.149,18.913,5.483v3.981c-7.525-0.447-14.988-0.787-22.405-1
			c-7.411-0.229-14.871-0.338-22.389-0.338c-5.093,0-10.007,0.108-14.763,0.338c-4.753,0.213-9.673,0.553-14.756,1v-3.98H195.708z"
			/>
		<path opacity="0.9" fill="#FFFFFF" enable-background="new    " d="M443.874,210.441c-2.21-5.524-4.698-11.112-7.461-16.748
			c-2.778-5.645-6.091-10.668-9.96-15.101c-3.869-4.426-8.406-8.071-13.598-10.948c-5.207-2.871-11.232-4.312-18.09-4.312
			c-6.861,0-12.711,1.659-17.58,4.976c-4.861,3.312-8.797,7.576-11.779,12.774c-2.981,5.196-5.191,11.063-6.639,17.584
			c-1.445,6.522-2.156,12.995-2.156,19.408c0,7.3,1.205,14.264,3.646,20.901c2.442,6.639,5.863,12.56,10.288,17.758
			c4.431,5.195,9.787,9.276,16.099,12.269c6.301,2.992,13.315,4.476,21.072,4.476c8.174,0,15.912-1.482,23.218-4.476
			c7.309-2.991,14.269-6.799,20.906-11.448l4.638,5.309c-9.949,8.191-19.736,14.326-29.356,18.414
			c-9.621,4.094-20.411,6.146-32.354,6.146c-8.627,0-16.865-1.78-24.715-5.315c-7.853-3.531-14.713-8.295-20.576-14.26
			c-5.852-5.977-10.562-12.996-14.103-21.065c-3.536-8.075-5.301-16.648-5.301-25.718s1.765-17.637,5.301-25.721
			c3.541-8.062,8.251-15.09,14.103-21.064c5.863-5.971,12.725-10.727,20.576-14.258c7.85-3.535,16.088-5.315,24.715-5.315
			c9.291,0,17.806,0.501,25.554,1.496c7.734,0.991,15.47,2.268,23.227,3.819l4.309,50.422h-3.982V210.441z"/>
		<path opacity="0.9" fill="#FFFFFF" enable-background="new    " d="M635.646,283.443c-6.428-0.447-13.279-0.787-20.589-1
			c-7.29-0.229-14.693-0.338-22.223-0.338c-5.087,0-10.006,0.108-14.759,0.338c-4.756,0.213-9.35,0.553-13.774,1v-3.981
			c7.078-1.334,12.547-3.155,16.427-5.483c3.858-2.321,5.814-7.131,5.814-14.431v-53.423c0-11.275-2.386-20.009-7.142-26.206
			c-4.769-6.187-12.438-9.286-23.058-9.286c-3.77,0-7.637,0.551-11.612,1.653c-3.979,1.108-7.641,2.604-10.955,4.481
			c-3.313,1.881-6.082,3.924-8.289,6.141c-2.212,2.212-3.311,4.307-3.311,6.292v70.348c0,7.3,2.092,12.108,6.292,14.431
			c4.196,2.328,10.508,4.149,18.914,5.483v3.981c-7.521-0.447-14.989-0.787-22.398-1c-7.408-0.229-14.881-0.338-22.396-0.338
			c-5.087,0-10.006,0.108-14.763,0.338c-4.756,0.213-9.672,0.553-14.759,1v-3.981c7.518-1.334,13.27-3.155,17.249-5.483
			c3.986-2.321,5.979-7.131,5.979-14.431V90.333c0-7.96-0.393-14.203-1.171-18.743c-0.78-4.526-2.104-7.964-3.987-10.281
			c-1.865-2.324-4.419-3.82-7.63-4.48c-3.198-0.655-7.24-1.105-12.107-1.329v-3.981l50.776-5.636v128.396
			c5.962-4.646,12.819-9.062,20.561-13.271c7.744-4.195,15.151-6.304,22.224-6.304c6.198,0,12.126,0.778,17.757,2.323
			c5.638,1.552,10.674,4.093,15.1,7.627c4.419,3.543,7.968,8.305,10.619,14.271c2.653,5.971,3.971,13.379,3.971,22.225v58.396
			c0,7.299,2.003,12.107,5.979,14.432c3.98,2.326,9.73,4.148,17.261,5.482L635.646,283.443L635.646,283.443z"/>
	</g>
	<path opacity="0.9" fill="#FFFFFF" enable-background="new    " d="M113.762,190.521c-0.655-2.861-2.269-5.896-4.809-9.099
		c-2.543-3.217-5.708-6.094-9.457-8.641c-3.767-2.537-8.028-4.636-12.779-6.298c-4.762-1.662-9.574-2.494-14.438-2.494
		c-7.519,0-13.885,1.66-19.08,4.976c-5.192,3.319-9.453,7.692-12.767,13.106c-3.328,5.433-5.76,11.508-7.299,18.255
		c-1.554,6.752-2.321,13.427-2.321,20.067s0.767,13.336,2.321,20.074c1.539,6.752,3.971,12.831,7.299,18.249
		c3.313,5.425,7.574,9.79,12.767,13.105c5.194,3.317,11.561,4.979,19.08,4.979c5.083,0,9.969-0.778,14.604-2.327
		c4.645-1.541,8.845-3.479,12.612-5.801c3.749-2.322,6.913-4.822,9.457-7.467c2.54-2.654,4.154-4.98,4.809-6.971v-42.258
		L113.762,190.521L113.762,190.521z M113.425,165.137v-64.56v-52.21l27.041,2.658l27.046,2.641v1.994v1.994
		c-2.771,0.229-5.296,0.497-7.593,0.837c-2.296,0.321-4.36,0.708-6.18,1.156c-1.821,0.438-3.474,1.021-4.938,1.736
		c-1.464,0.723-2.744,1.582-3.86,2.57c-1.106,1.002-2.021,2.163-2.771,3.49c-0.751,1.324-1.316,2.821-1.703,4.478
		c-0.39,1.669-0.673,3.569-0.875,5.729c-0.183,2.153-0.285,4.561-0.285,7.213v2.704l0.327,161.026c0,5.759,0.34,10.509,0.999,14.269
		c0.658,3.763,1.993,6.814,3.986,9.134c1.993,2.317,4.803,3.928,8.461,4.81c3.65,0.883,8.458,1.322,14.432,1.322v3.979
		c-8.844,0-17.643,0.108-26.385,0.338c-8.733,0.213-17.745,0.553-27.035,1v-12.281c-5.083,4.431-12.219,8.242-21.4,11.445
		c-9.182,3.207-19.077,4.814-29.705,4.814c-9.072,0-17.303-1.718-24.71-5.143c-7.408-3.432-13.718-8.072-18.913-13.938
		c-5.195-5.858-9.238-12.664-12.108-20.401c-2.871-7.739-4.317-15.811-4.317-24.221c0-9.966,1.774-19.132,5.312-27.546
		c3.542-8.399,8.461-15.692,14.769-21.896c6.313-6.188,13.703-10.994,22.225-14.434c8.505-3.423,17.742-5.142,27.712-5.142
		c7.295,0,14.376,1.325,21.233,3.979c6.838,2.651,13.372,5.869,19.571,9.623L113.425,165.137z"/>
</g>
<polygon fill="#FFFFFF" enable-background="new    " points="310,32.829 330.553,5.683 352.297,34.845 374.042,64 363,64 363,118 
	297,118 297,64 287,64 299,46.253 299,17 310,17 "/>
</svg>
