<?xml version="1.0" encoding="utf-8"?>
<!-- Generator: Adobe Illustrator 15.1.0, SVG Export Plug-In . SVG Version: 6.00 Build 0)  -->
<!DOCTYPE svg PUBLIC "-//W3C//DTD SVG 1.1//EN" "http://www.w3.org/Graphics/SVG/1.1/DTD/svg11.dtd">
<svg version="1.1" id="Layer_1" xmlns="http://www.w3.org/2000/svg" xmlns:xlink="http://www.w3.org/1999/xlink" x="0px" y="0px"
	 width="640px" height="290px" viewBox="0 0 640 290" enable-background="new 0 0 640 290" xml:space="preserve">
<g opacity="0.9">
	<g>
		<path opacity="0.9" fill="#123035" d="M195.708,279.461c7.515-1.334,13.261-3.156,17.247-5.483
			c3.987-2.322,5.97-7.132,5.97-14.431v-76.975c0-6.628-2.268-10.723-6.811-12.28c-4.53-1.539-9.787-2.324-15.751-2.324v-3.978
			l48.435-7.292v18.903c2.661-1.763,5.698-4.086,9.129-6.96c3.417-2.877,7.08-5.692,10.955-8.464
			c3.859-2.764,7.793-5.14,11.771-7.13c3.978-1.992,7.856-2.991,11.614-2.991c8.625,0,15.099,2.38,19.416,7.136
			c4.317,4.759,6.675,11.338,7.133,19.737l-26.549,13.935c0.448-1.536,0.887-3.143,1.326-4.806c0.439-1.662,0.658-3.819,0.658-6.472
			c0-3.09-1.097-6.02-3.309-8.789c-2.213-2.769-5.195-4.149-8.953-4.149c-3.103,0-6.193,0.782-9.302,2.317
			c-3.091,1.555-6.083,3.489-8.943,5.816c-2.88,2.321-5.6,4.805-8.141,7.457c-2.543,2.657-4.808,4.975-6.804,6.96v70.348
			c0,7.299,2.104,12.108,6.311,14.431c4.208,2.327,10.498,4.149,18.913,5.483v3.982c-7.525-0.448-14.988-0.788-22.405-1.001
			c-7.411-0.229-14.871-0.337-22.389-0.337c-5.093,0-10.007,0.108-14.763,0.337c-4.753,0.213-9.673,0.553-14.756,1.001V279.461z"/>
		<path opacity="0.9" fill="#123035" d="M443.874,210.442c-2.21-5.525-4.698-11.113-7.461-16.749
			c-2.778-5.644-6.091-10.668-9.96-15.1c-3.869-4.426-8.406-8.072-13.598-10.949c-5.207-2.87-11.232-4.311-18.09-4.311
			c-6.861,0-12.711,1.659-17.579,4.975c-4.862,3.312-8.797,7.577-11.78,12.775c-2.981,5.197-5.191,11.063-6.638,17.584
			c-1.446,6.523-2.156,12.995-2.156,19.408c0,7.3,1.204,14.264,3.646,20.902c2.442,6.638,5.863,12.559,10.288,17.758
			c4.43,5.194,9.787,9.276,16.098,12.268c6.302,2.992,13.316,4.475,21.073,4.475c8.174,0,15.912-1.482,23.218-4.475
			c7.308-2.991,14.268-6.799,20.906-11.449l4.638,5.309c-9.95,8.192-19.737,14.327-29.357,18.415
			c-9.621,4.093-20.411,6.145-32.355,6.145c-8.626,0-16.865-1.78-24.714-5.316c-7.853-3.531-14.713-8.294-20.576-14.259
			c-5.852-5.977-10.562-12.997-14.103-21.066c-3.536-8.075-5.301-16.648-5.301-25.717c0-9.07,1.765-17.637,5.301-25.721
			c3.541-8.063,8.251-15.09,14.103-21.064c5.863-5.971,12.724-10.727,20.576-14.259c7.849-3.535,16.088-5.315,24.714-5.315
			c9.292,0,17.806,0.501,25.554,1.496c7.735,0.992,15.47,2.268,23.227,3.819l4.308,50.422H443.874z"/>
		<path opacity="0.9" fill="#123035" d="M635.646,283.444c-6.427-0.448-13.279-0.788-20.588-1.001
			c-7.29-0.229-14.694-0.337-22.223-0.337c-5.087,0-10.006,0.108-14.759,0.337c-4.756,0.213-9.349,0.553-13.774,1.001v-3.982
			c7.078-1.334,12.547-3.156,16.426-5.483c3.859-2.322,5.815-7.132,5.815-14.431v-53.423c0-11.276-2.386-20.009-7.142-26.206
			c-4.768-6.187-12.438-9.286-23.057-9.286c-3.77,0-7.637,0.551-11.613,1.653c-3.979,1.109-7.64,2.605-10.955,4.481
			c-3.313,1.881-6.082,3.925-8.289,6.141c-2.212,2.212-3.31,4.307-3.31,6.292v70.348c0,7.299,2.092,12.108,6.292,14.431
			c4.196,2.327,10.508,4.149,18.914,5.483v3.982c-7.521-0.448-14.989-0.788-22.399-1.001c-7.408-0.229-14.88-0.337-22.396-0.337
			c-5.087,0-10.006,0.108-14.763,0.337c-4.756,0.213-9.672,0.553-14.759,1.001v-3.982c7.518-1.334,13.27-3.156,17.249-5.483
			c3.987-2.322,5.98-7.132,5.98-14.431V90.333c0-7.96-0.393-14.203-1.171-18.743c-0.78-4.526-2.104-7.964-3.987-10.281
			c-1.866-2.324-4.419-3.82-7.63-4.48c-3.198-0.655-7.24-1.105-12.108-1.329v-3.981l50.777-5.636v128.396
			c5.962-4.645,12.819-9.061,20.56-13.271c7.744-4.195,15.152-6.304,22.224-6.304c6.198,0,12.126,0.779,17.757,2.324
			c5.637,1.551,10.674,4.092,15.099,7.627c4.419,3.542,7.968,8.304,10.619,14.271c2.654,5.97,3.971,13.378,3.971,22.225v58.396
			c0,7.299,2.003,12.108,5.979,14.431c3.98,2.327,9.73,4.149,17.26,5.483V283.444z"/>
	</g>
	<path opacity="0.9" fill="#123035" d="M113.762,190.522c-0.655-2.862-2.269-5.896-4.809-9.099
		c-2.543-3.217-5.708-6.094-9.457-8.641c-3.767-2.537-8.028-4.635-12.779-6.298c-4.762-1.662-9.574-2.494-14.438-2.494
		c-7.519,0-13.885,1.66-19.08,4.976c-5.192,3.319-9.453,7.692-12.767,13.106c-3.328,5.433-5.76,11.508-7.299,18.255
		c-1.554,6.752-2.321,13.427-2.321,20.068c0,6.64,0.767,13.335,2.321,20.074c1.539,6.752,3.971,12.831,7.299,18.249
		c3.313,5.424,7.574,9.79,12.767,13.105c5.194,3.318,11.561,4.979,19.08,4.979c5.083,0,9.969-0.779,14.604-2.327
		c4.645-1.541,8.845-3.48,12.612-5.801c3.749-2.323,6.913-4.822,9.457-7.467c2.54-2.654,4.154-4.981,4.809-6.971v-42.257V190.522z
		 M113.425,165.137v-64.56V48.367l27.041,2.658l27.046,2.641v1.994v1.994c-2.771,0.229-5.296,0.497-7.593,0.837
		c-2.296,0.321-4.36,0.708-6.18,1.156c-1.821,0.438-3.474,1.021-4.938,1.736c-1.464,0.723-2.744,1.582-3.86,2.57
		c-1.106,1.002-2.021,2.163-2.771,3.49c-0.751,1.324-1.316,2.821-1.703,4.478c-0.39,1.669-0.673,3.569-0.875,5.729
		c-0.183,2.153-0.285,4.561-0.285,7.213v2.704l0.327,161.026c0,5.759,0.34,10.508,0.999,14.269c0.658,3.762,1.993,6.814,3.986,9.133
		c1.993,2.317,4.803,3.928,8.461,4.809c3.65,0.883,8.458,1.323,14.432,1.323v3.979c-8.844,0-17.643,0.108-26.385,0.337
		c-8.733,0.213-17.745,0.553-27.035,1.001v-12.282c-5.083,4.431-12.219,8.243-21.4,11.446c-9.182,3.207-19.077,4.814-29.705,4.814
		c-9.072,0-17.303-1.718-24.71-5.143c-7.408-3.431-13.718-8.072-18.913-13.938c-5.195-5.859-9.238-12.664-12.108-20.402
		c-2.871-7.739-4.317-15.81-4.317-24.22c0-9.966,1.774-19.132,5.312-27.546c3.542-8.4,8.461-15.693,14.769-21.896
		c6.313-6.187,13.703-10.994,22.225-14.433c8.505-3.423,17.742-5.142,27.712-5.142c7.295,0,14.376,1.326,21.233,3.98
		c6.838,2.651,13.372,5.869,19.571,9.623L113.425,165.137z"/>
</g>
<polygon opacity="0.8" fill="#123035" points="310,32.829 330.553,5.683 352.297,34.845 374.042,64 363,64 363,118 297,118 297,64 
	287,64 299,46.253 299,17 310,17 "/>
</svg>
